<svg xmlns="http://www.w3.org/2000/svg" viewBox="0 0 142.36 84.06" xmlns:v="https://vecta.io/nano"><defs><clipPath id="A" transform="translate(-678.82 -660.74)"><path d="M699.83 694.42h65.66c18.25-.36 37.83.63 41.49.63s8.23-1.34 8.66.8.6 4.71 1.56 8.66 1.19 5.56.81 6.63 1.52 7.18 2 10.49a98 98 0 0 1 1.11 14.25c-.18 3.28-.64 4.18-1.79 4.47s-62.77-.65-94 0-29-.77-35.07-1.84c0 0-4.11-.68-3.85-1.93l1-7.82c.16-1.56.65-1.79.65-1.79s-.35 0 .22-3.31 0-4.87 1.53-10.1 2.23-13.73 2.66-15.83a12 12 0 0 1 1.19-3.39z" fill="none"/></clipPath></defs><path d="M9.89 75.94s.61 5.56 2.88 6.5c5.69 2.34 123.86.44 125.86-.47s-.11-17.5-.11-17.5M11.07 72.1s.09 6.74 2.36 7.68c5.69 2.34 122.47 1.28 124.47.38s-.73-19.11-.73-19.11" fill="none" stroke="#036" stroke-miterlimit="10"/><path d="M21.01 33.68h65.66c18.25-.36 37.83.63 41.49.63s8.23-1.34 8.66.8.6 4.71 1.56 8.66 1.19 5.56.81 6.63 1.52 7.18 2 10.49a98 98 0 0 1 1.11 14.25c-.18 3.28-.64 4.18-1.79 4.47s-62.77-.65-94 0-29-.77-35.07-1.84c0 0-4.11-.68-3.85-1.93l1-7.82c.16-1.56.65-1.79.65-1.79s-.35 0 .22-3.31 0-4.87 1.53-10.1 2.23-13.73 2.66-15.83a12 12 0 0 1 1.19-3.39z" fill="#036"/><path d="M23.55 51.81s3.75.18 4.3.73a2.38 2.38 0 0 0 2.54.74c1.21-.37 2.92-2.82 4.38-2.88s3.41 3.06 3.41 3.06h6.18l2.54 2.2 1.54-.37s1.54-2.38 2.76-1.83 7 0 7 0h2.42s2.65-1.1 4.2 0a9.54 9.54 0 0 0 5.84 1.65c1.88-.18 2.61-2.2 4.34-1.65s5 0 5 0 6.18-.73 8.61 0 4.63-.55 5.73 0 1.44-.92 5.41 0a27 27 0 0 0 8.9.55 23.84 23.84 0 0 0 3.47-.55c.42-.18 4.48-.28 5.14.15M44.4 61.16a12.58 12.58 0 0 0 6.73 0c3.31-1.1 1.43-2.2 10.48 0s9.48.24 16.21.48 7.17-1.25 11.15-.59 7.94-.47 10.15 0 9.46-1.15 11.29-1.16a56 56 0 0 1 7.24 1.16M70 68.91s3-3.66 6.95-1.28 4.31 1.1 9.05 1.28 7.83-1.28 9.6-1.1 8.05-1.28 11 0 7.83 1.65 8.38 1.1" fill="none" stroke-miterlimit="10" stroke="#fff" stroke-width=".6" stroke-linecap="round"/><g clip-path="url(#A)"><path d="M13.39 2.67h65.66c18.26-.36 37.82.62 41.48.62s8.24-1.34 8.67.81.59 4.71 1.56 8.66 1.19 5.56.81 6.63 1.52 7.17 2 10.48a99.59 99.59 0 0 1 1.11 14.26c-.18 3.28-.64 4.17-1.79 4.47s-62.77-.66-94 0-29-.78-35.07-1.85c0 0-4.12-.67-3.85-1.92l1-7.83c.16-1.57.65-1.78.65-1.78s-.35 0 .21-3.31 0-4.88 1.54-10.11S5.6 8.08 6.03 5.98a12 12 0 0 1 1.19-3.39z" fill="#001526"/></g><path d="M13.39.08h65.66c18.26-.36 37.82.63 41.48.63s8.24-1.34 8.67.8.59 4.71 1.56 8.66 1.19 5.56.81 6.63 1.52 7.18 2 10.49a99.34 99.34 0 0 1 1.11 14.25c-.18 3.28-.64 4.17-1.79 4.47s-62.77-.66-94 0-29-.77-35.07-1.85c0 0-4.12-.67-3.85-1.92l1-7.82c.16-1.56.65-1.79.65-1.79s-.35 0 .21-3.31 0-4.87 1.54-10.1S5.6 5.49 6.03 3.39A12 12 0 0 1 7.22 0z" fill="#abc7d3"/><g fill="#485772"><circle cx="23.55" cy="39.29" r="2.3"/><circle cx="23.55" cy="56.69" r="2.3"/><circle cx="117.29" cy="39.29" r="2.3"/><circle cx="121.68" cy="56.69" r="2.3"/></g><g fill="none" stroke-miterlimit="10" stroke-linecap="round"><path d="M117.29 38.72s5.45 4.53 4.39 18M23.55 39.26a37.66 37.66 0 0 0 0 17.4" stroke="#3ac7ce" stroke-width="1.81"/><path d="M17.18 8.64l12.29 1.34a7.41 7.41 0 0 0 4.49-1.07 5 5 0 0 1 4.4-.27c3.64 1.47 6.4 1.83 12.36 1.47s7.83-2 11.8-1.47 5.74.55 9.6.92 5.62.55 9.93.73 5.07-.18 8.49.73 3.53 1.47 6.29.73a32.78 32.78 0 0 1 6.66-.91c.62 0 12.29.7 14.17 1.25m-79.48 5.34l7.94 1.09c2.94.2 8.94.16 11.7 0s9.59 0 9.59 0 1.77-1.85 6.62 0 6.4 3 10.15 2.32 4.86-3.25 8.28-2.32 7.83 2.32 7.83 2.32 3 .1 4.87 0 5.94-.84 7.37-.84m-80.84 8.89s14 .64 17.65 1.19 7.5-1.29 12.25-1.19 6.84-.46 8.38 0a144 144 0 0 0 14.56 1.74c2 0 3.64-.55 5.63-.55h6.73a13.35 13.35 0 0 1 2.76 0" stroke="#fff" stroke-width=".6"/></g></svg>