<svg xmlns="http://www.w3.org/2000/svg" viewBox="0 0 90.4 109.61" xmlns:v="https://vecta.io/nano"><path d="M28.28 106.17a9.61 9.61 0 0 1-1.41 1.53 12.11 12.11 0 0 1-1.64 1.29c-.89.57-2.45.74-4.68.52a10.71 10.71 0 0 1-6.5-2.82 11.2 11.2 0 0 1-1.17-1.25l-.9-1.13-1-1.41-.88-1.25a26.15 26.15 0 0 1-2.81-4.89 42.56 42.56 0 0 1-2.77-9.55 43.4 43.4 0 0 1-.78-9.9 26.25 26.25 0 0 1 .91-5.57l.38-1.48.43-1.67c.08-.31.23-.76.44-1.37a13.32 13.32 0 0 1 .65-1.59 12.11 12.11 0 0 1 .79-1.32 11.3 11.3 0 0 1 4.31-3.61q3-1.49 4.56-1.16a11.73 11.73 0 0 1 2 .63 9.52 9.52 0 0 1 1.85.93 1.48 1.48 0 0 1 .46.42c.22.29.22 1.19 0 2.7 0 .42-.1 1-.18 1.79l-.21 2.1-.15 1.8v.88A7.76 7.76 0 0 1 19.9 72a1.83 1.83 0 0 1-.3.8 2.46 2.46 0 0 1-1.51.73 14.84 14.84 0 0 1-2.4.29 18 18 0 0 0-2.36.24 2.2 2.2 0 0 0-1.45.63 1.93 1.93 0 0 0-.25.62 6 6 0 0 0-.14.63q0 .23-.06.81v.65a28.82 28.82 0 0 0 3 16.58c0 0 .11.23.27.59s.27.6.34.73a6.38 6.38 0 0 0 .35.54 1.9 1.9 0 0 0 .46.5 2.24 2.24 0 0 0 1.57.07 16.6 16.6 0 0 0 2.3-.6 14.81 14.81 0 0 1 2.34-.58 2.43 2.43 0 0 1 1.67.15 1.78 1.78 0 0 1 .57.64 8 8 0 0 1 .5 1.1l.3.84.77 1.63.94 1.89.8 1.61c.73 1.33 1 2.18.94 2.53a1.61 1.61 0 0 1-.27.55z" fill="#036"/><path d="M90.01 53.57L52.28 23.94a7.53 7.53 0 0 0-3.7-9.72L45.18 0l-3.44 14.39a7.57 7.57 0 0 0-3.36 9.52l-38 29.66a1 1 0 0 0 .63 1.81h88.37a1 1 0 0 0 .63-1.81z" fill="#97b3c1"/><g fill="none" stroke="#036" stroke-linecap="round" stroke-miterlimit="10" stroke-width="2.43"><path d="M31.98 106.53h46.21V62.42H25.57"/><path d="M24.04 73.36l21.71 17.5 32.44-25.78M27.12 93.14l10.72-8.66m15.95 0l24.4 19.82"/></g></svg>