<?xml version="1.0" encoding="UTF-8" standalone="no"?>
<!-- Created with Inkscape (http://www.inkscape.org/) -->

<svg
   xmlns:dc="http://purl.org/dc/elements/1.1/"
   xmlns:cc="http://creativecommons.org/ns#"
   xmlns:rdf="http://www.w3.org/1999/02/22-rdf-syntax-ns#"
   xmlns:svg="http://www.w3.org/2000/svg"
   xmlns="http://www.w3.org/2000/svg"
   xmlns:sodipodi="http://sodipodi.sourceforge.net/DTD/sodipodi-0.dtd"
   xmlns:inkscape="http://www.inkscape.org/namespaces/inkscape"
   version="1.1"
   id="svg3842"
   xml:space="preserve"
   viewBox="0 0 171.68134 148.70799"
   sodipodi:docname="Gallery.svg"
   inkscape:version="0.92.5 (2060ec1f9f, 2020-04-08)"><metadata
     id="metadata3848"><rdf:RDF><cc:Work
         rdf:about=""><dc:format>image/svg+xml</dc:format><dc:type
           rdf:resource="http://purl.org/dc/dcmitype/StillImage" /><dc:title></dc:title></cc:Work></rdf:RDF></metadata><defs
     id="defs3846"><clipPath
       clipPathUnits="userSpaceOnUse"
       id="clipPath3858"><path
         d="M 0,1500 H 1500 V 0 H 0 Z"
         id="path3856"
         inkscape:connector-curvature="0" /></clipPath><clipPath
       clipPathUnits="userSpaceOnUse"
       id="clipPath3902"><path
         d="m 695.938,852.744 c -5.423,0 -9.818,-4.395 -9.818,-9.817 v 0 -90.896 c 0,-5.422 4.395,-9.818 9.818,-9.818 v 0 h 108.125 c 5.422,0 9.818,4.396 9.818,9.818 v 0 90.896 c 0,5.422 -4.396,9.817 -9.818,9.817 v 0 z"
         id="path3900"
         inkscape:connector-curvature="0" /></clipPath></defs><sodipodi:namedview
     pagecolor="#ffffff"
     bordercolor="#666666"
     borderopacity="1"
     objecttolerance="10"
     gridtolerance="10"
     guidetolerance="10"
     inkscape:pageopacity="0"
     inkscape:pageshadow="2"
     inkscape:window-width="1366"
     inkscape:window-height="768"
     id="namedview3844"
     showgrid="false"
     inkscape:zoom="1.3289991"
     inkscape:cx="74.105767"
     inkscape:cy="-19.048347"
     inkscape:window-x="0"
     inkscape:window-y="0"
     inkscape:window-maximized="0"
     inkscape:current-layer="g3898"
     fit-margin-top="0"
     fit-margin-left="0"
     fit-margin-right="0"
     fit-margin-bottom="0" /><g
     id="g3850"
     inkscape:label="Gallery"
     transform="matrix(1.3333333,0,0,-1.3333333,-914.15944,1137.6585)"
     inkscape:groupmode="layer"
     style="display:inline"><g
       id="g3896"
       style="display:inline"
       inkscape:groupmode="layer"
       inkscape:label="g3896"><g
         id="g3898"
         clip-path="url(#clipPath3902)"
         style="display:inline"><path
           inkscape:connector-curvature="0"
           id="path3890"
           style="display:inline;fill:none;stroke:#97b3c1;stroke-width:1;stroke-linecap:butt;stroke-linejoin:miter;stroke-miterlimit:10;stroke-dasharray:none;stroke-opacity:1"
           d="m 804.0626,742.2129 h -108.125 c -5.422,0 -9.818,4.396 -9.818,9.818 v 90.895 c 0,5.423 4.396,9.818 9.818,9.818 h 108.125 c 5.422,0 9.818,-4.395 9.818,-9.818 v -90.895 c 0,-5.422 -4.396,-9.818 -9.818,-9.818 z" /><path
           inkscape:connector-curvature="0"
           id="path3894"
           style="display:inline;fill:#97b3c1;fill-opacity:1;fill-rule:nonzero;stroke:none"
           d="m 795.7012,825.1787 c 0,-6.872 -5.571,-12.442 -12.443,-12.442 -6.872,0 -12.443,5.57 -12.443,12.442 0,6.872 5.571,12.443 12.443,12.443 6.872,0 12.443,-5.571 12.443,-12.443" /><path
           inkscape:connector-curvature="0"
           id="path3906"
           style="fill:#97b3c1;fill-opacity:1;fill-rule:nonzero;stroke:none"
           d="m 702.8448,740.8594 h -3.856 l 0.54,13.425 h 2.776 z" /><path
           inkscape:connector-curvature="0"
           id="path3910"
           style="fill:#97b3c1;fill-opacity:1;fill-rule:nonzero;stroke:none"
           d="m 788.6548,740.8594 h -2.301 l 0.322,8.011 h 1.657 z" /><path
           inkscape:connector-curvature="0"
           id="path3918"
           style="fill:#97b3c1;fill-opacity:1;fill-rule:nonzero;stroke:none"
           d="m 758.732,740.8594 h -3.856 l 0.54,13.425 h 2.776 z" /><path
           inkscape:connector-curvature="0"
           id="path3922"
           style="fill:#003366;fill-opacity:1;fill-rule:nonzero;stroke:none"
           d="m 728.8223,759.5879 v 0 c -2.629,0 -4.76,-2.131 -4.76,-4.76 v -13.101 h 9.521 v 13.101 c 0,2.629 -2.132,4.76 -4.761,4.76" /><path
           inkscape:connector-curvature="0"
           id="path3926"
           style="fill:#003366;fill-opacity:1;fill-rule:nonzero;stroke:none"
           d="m 689.0206,796.7764 38.46,36.313 c 0.661,0.624 1.694,0.625 2.357,0.004 l 38.758,-36.312 c 1.138,-1.067 0.383,-2.977 -1.177,-2.977 h -77.217 c -1.556,0 -2.313,1.903 -1.181,2.972" /><path
           inkscape:connector-curvature="0"
           id="path3930"
           style="fill:#abc7d3;fill-opacity:1;fill-rule:nonzero;stroke:none"
           d="m 759.8477,787.2378 c -1.582,-1.583 -0.729,-4.504 -0.729,-4.504 h -60.711 c 0,0 0.729,1.583 -1.826,4.013 -2.554,2.435 -2.192,4.99 -2.192,4.99 h 67.118 c -0.114,-1.081 -0.486,-3.331 -1.66,-4.499" /><path
           inkscape:connector-curvature="0"
           id="path3934"
           style="fill:#003366;fill-opacity:1;fill-rule:nonzero;stroke:none"
           d="m 698.4068,780.6655 -32.766,-32.174 c -0.343,-0.337 -0.105,-0.919 0.376,-0.919 h 30.58 c 0.146,0 0.286,0.058 0.387,0.164 l 31.287,32.528 c 0.211,0.219 0.561,0.22 0.772,0.002 l 31.5,-32.531 c 0.101,-0.105 0.24,-0.163 0.385,-0.163 h 34.011 c 0.493,0 0.725,0.609 0.356,0.936 l -36.176,32.157" /></g></g></g></svg>