<svg xmlns="http://www.w3.org/2000/svg" viewBox="0 0 148.9 112.38" xmlns:v="https://vecta.io/nano"><defs><clipPath id="A" transform="translate(-665.48 -646.76)"><rect x="686.12" y="647.26" width="127.76" height="110.53" rx="9.82" fill="none"/></clipPath><clipPath id="B"><path d="M695.938 852.744a9.82 9.82 0 0 1-9.818-9.817h0v-90.896a9.82 9.82 0 0 1 9.818-9.818h0 108.125a9.82 9.82 0 0 1 9.818 9.818h0v90.896a9.82 9.82 0 0 1-9.818 9.817h0z"/></clipPath></defs><rect x="20.64" y=".5" width="127.76" height="110.53" rx="9.82" fill="none" stroke="#97b3c1" stroke-miterlimit="10"/><circle cx="124.067" cy="26.444" r="12.44" fill="#97b3c1"/><g clip-path="url(#A)"><g fill="#97b3c1"><path d="M37.37 112.39h-3.86l.54-13.43h2.78l.54 13.43zm85.81 0h-2.3l.32-8.02h1.65l.33 8.02z"/></g><path d="M6.43 112.39h-2.3l.32-8.02h1.66" fill="#fff"/><path d="M93.25 112.39H89.4l.54-13.43h2.77l.54 13.43z" fill="#97b3c1"/><g fill="#036"><path d="M63.34 93.66h0a4.76 4.76 0 0 1 4.76 4.76v13.1a0 0 0 0 1 0 0h-9.52a0 0 0 0 1 0 0v-13.1a4.76 4.76 0 0 1 4.76-4.76zm-39.82-37.2l38.46-36.31a1.72 1.72 0 0 1 2.36 0l38.76 36.31a1.73 1.73 0 0 1-1.18 3h-77.2a1.73 1.73 0 0 1-1.2-3z"/></g><path d="M94.37 66c-1.58 1.58-.73 4.51-.73 4.51H32.93s.73-1.59-1.83-4a6.2 6.2 0 0 1-2.19-5h67.12c-.12 1.07-.51 3.32-1.66 4.49z" fill="#abc7d3"/><path d="M32.93 72.57L.16 104.75a.54.54 0 0 0 .38.92h30.58a.52.52 0 0 0 .38-.17l31.29-32.52a.54.54 0 0 1 .77 0l31.5 32.53a.52.52 0 0 0 .39.17h34a.54.54 0 0 0 .35-.94L93.63 72.58" fill="#036"/></g><g clip-path="url(#B)" transform="matrix(.700576 0 0 -.770652 -447.255135 679.038039)"><g fill="#97b3c1"><path d="M702.845 740.859h-3.856l.54 13.425h2.776zm85.81 0h-2.301l.322 8.011h1.657z"/></g><path d="M671.912 740.859h-2.301l.322 8.011h1.657" fill="#fff"/><path d="M758.732 740.859h-3.856l.54 13.425h2.776z" fill="#97b3c1"/><g fill="#036"><path d="M728.822 759.588h0a4.76 4.76 0 0 1-4.76-4.76v-13.101h9.521v13.101a4.76 4.76 0 0 1-4.761 4.76m-39.801 37.188l38.46 36.313a1.72 1.72 0 0 0 2.357.004l38.758-36.312c1.138-1.067.383-2.977-1.177-2.977h-77.217c-1.556 0-2.313 1.903-1.181 2.972"/></g><path d="M759.848 787.238c-1.582-1.583-.729-4.504-.729-4.504h-60.711s.729 1.583-1.826 4.013-2.192 4.99-2.192 4.99h67.118c-.114-1.081-.486-3.331-1.66-4.499" fill="#abc7d3"/><path d="M698.407 780.666l-32.766-32.174a.54.54 0 0 1 .376-.919h30.58c.146 0 .286.058.387.164l31.287 32.528c.211.219.561.22.772.002l31.5-32.531c.101-.105.24-.163.385-.163h34.011c.493 0 .725.609.356.936l-36.176 32.157" fill="#036"/></g></svg>