<svg xmlns="http://www.w3.org/2000/svg" viewBox="0 0 95.79 113.37" xmlns:v="https://vecta.io/nano"><path d="M19.51 57.12h56.77a0 0 0 0 1 0 0v34a3 3 0 0 1-3 3H22.52a3 3 0 0 1-3-3v-34a0 0 0 0 1-.01 0z" fill="#abc7d3"/><path d="M38.81 96.08V68.39a9.08 9.08 0 0 1 18.16 0v27.69z" fill="#fff"/><g fill="#036"><path d="M47.89 61.31h0A7.08 7.08 0 0 1 55 68.39v25.7a0 0 0 0 1 0 0H40.81a0 0 0 0 1 0 0v-25.7a7.08 7.08 0 0 1 7.08-7.08zM44.2 15.29L47.89.04a.05.05 0 0 1 .1 0l3.64 15.25m-4.48 4.36L2.47 54.52a1.45 1.45 0 0 0 .9 2.59h89.07a1.45 1.45 0 0 0 .89-2.59L48.94 19.65a1.46 1.46 0 0 0-1.79 0z"/><circle cx="48.06" cy="21.57" r="7.79"/></g><g fill="#97b3c1"><rect x="8.33" y="95.8" width="79.13" height="7.93" rx="3.96"/><rect y="105.44" width="95.79" height="7.93" rx="3.96"/></g></svg>