<?xml version="1.0" encoding="UTF-8" standalone="no"?>
<svg
   width="2000"
   height="2000"
   version="1.1"
   id="svg34"
   sodipodi:docname="photo.svg"
   inkscape:version="1.1.1 (3bf5ae0d25, 2021-09-20)"
   xmlns:inkscape="http://www.inkscape.org/namespaces/inkscape"
   xmlns:sodipodi="http://sodipodi.sourceforge.net/DTD/sodipodi-0.dtd"
   xmlns="http://www.w3.org/2000/svg"
   xmlns:svg="http://www.w3.org/2000/svg">
  <sodipodi:namedview
     id="namedview36"
     pagecolor="#ffffff"
     bordercolor="#666666"
     borderopacity="1.0"
     inkscape:pageshadow="2"
     inkscape:pageopacity="0.0"
     inkscape:pagecheckerboard="0"
     showgrid="false"
     inkscape:zoom="0.26"
     inkscape:cx="1000"
     inkscape:cy="1001.9231"
     inkscape:window-width="1366"
     inkscape:window-height="705"
     inkscape:window-x="-8"
     inkscape:window-y="-8"
     inkscape:window-maximized="1"
     inkscape:current-layer="svg34" />
  <defs
     id="defs8">
    <clipPath
       id="A">
      <path
         d="M0 1500h1500V0H0z"
         id="path2" />
    </clipPath>
    <clipPath
       id="B">
      <path
         d="M695.938 852.744a9.82 9.82 0 0 1-9.818-9.817h0v-90.896a9.82 9.82 0 0 1 9.818-9.818h0 108.125a9.82 9.82 0 0 1 9.818 9.818h0v90.896a9.82 9.82 0 0 1-9.818 9.817h0z"
         id="path5" />
    </clipPath>
  </defs>
  <g
     transform="matrix(1.2822579,0,0,-1.2822579,25.50639,1985.485)"
     id="g32">
    <g
       clip-path="url(#A)"
       transform="matrix(1.760184,0,0,1.761452,-709.66251,-523.78045)"
       id="g12">
      <path
         d="m 965.075,753.514 c 0,-24.42 -14.143,-44.213 -31.588,-44.213 -17.445,0 -31.588,19.793 -31.588,44.213 0,24.42 14.143,44.216 31.588,44.216 17.445,0 31.588,-19.797 31.588,-44.216"
         fill="#97b3c1"
         id="path10" />
    </g>
    <g
       clip-path="url(#B)"
       transform="matrix(4.732222,0,0,6.628867,-2747.482,-4635.8416)"
       id="g30">
      <g
         fill="#97b3c1"
         id="g16">
        <path
           d="m 702.845,740.859 h -3.856 l 0.54,13.425 h 2.776 z m 85.81,0 h -2.301 l 0.322,8.011 h 1.657 z"
           id="path14" />
      </g>
      <path
         d="m 671.912,740.859 h -2.301 l 0.322,8.011 h 1.657"
         fill="#ffffff"
         id="path18" />
      <path
         d="m 758.732,740.859 h -3.856 l 0.54,13.425 h 2.776 z"
         fill="#97b3c1"
         id="path20" />
      <g
         fill="#003366"
         id="g24">
        <path
           d="m 728.822,759.588 v 0 a 4.76,4.76 0 0 1 -4.76,-4.76 v -13.101 h 9.521 v 13.101 a 4.76,4.76 0 0 1 -4.761,4.76 m -39.801,37.188 38.46,36.313 a 1.72,1.72 0 0 0 2.357,0.004 l 38.758,-36.312 c 1.138,-1.067 0.383,-2.977 -1.177,-2.977 h -77.217 c -1.556,0 -2.313,1.903 -1.181,2.972"
           id="path22" />
      </g>
      <path
         d="m 759.848,787.238 c -1.582,-1.583 -0.729,-4.504 -0.729,-4.504 h -60.711 c 0,0 0.729,1.583 -1.826,4.013 -2.555,2.43 -2.192,4.99 -2.192,4.99 h 67.118 c -0.114,-1.081 -0.486,-3.331 -1.66,-4.499"
         fill="#abc7d3"
         id="path26" />
      <path
         d="m 698.407,780.666 -32.766,-32.174 a 0.54,0.54 0 0 1 0.376,-0.919 h 30.58 c 0.146,0 0.286,0.058 0.387,0.164 l 31.287,32.528 c 0.211,0.219 0.561,0.22 0.772,0.002 l 31.5,-32.531 c 0.101,-0.105 0.24,-0.163 0.385,-0.163 h 34.011 c 0.493,0 0.725,0.609 0.356,0.936 l -36.176,32.157"
         fill="#003366"
         id="path28" />
    </g>
  </g>
</svg>
