<svg xmlns="http://www.w3.org/2000/svg" viewBox="0 0 89.59 103.18" xmlns:v="https://vecta.io/nano"><g fill="#036"><path d="M41.26 14.61L44.74.04a.05.05 0 1 1 .1 0l3.47 14.57m-4.2.63L1.43 48.55a1.39 1.39 0 0 0 .86 2.48h85.08a1.38 1.38 0 0 0 .86-2.47L45.79 15.24a1.4 1.4 0 0 0-1.68 0z"/><circle cx="44.95" cy="20.61" r="7.44"/></g><g fill="#97b3c1"><rect x="7" y="91.43" width="75.59" height="5.16" rx="2.58"/><rect y="98.02" width="89.59" height="5.16" rx="2.58"/><path d="M23.26 53.39H10.55v6.11h1.39s-.25-2.5.78-2.56 2 .55 1.85 3.1 2.83 2.72 3.8 3.37a1.07 1.07 0 0 1 .44 1 2.21 2.21 0 0 1-1.15 1.84 3.7 3.7 0 0 0-2.06 3.58c.22 2.26 2.81 2.48 3.91 2.47a.48.48 0 0 1 .49.48h0a.48.48 0 0 1-.25.42 2.81 2.81 0 0 0-1.58 2.51 1.87 1.87 0 0 0 1.56 1.77 1.43 1.43 0 0 0-1.41 1.56c0 1.88 2.5 1.16 2.46 3.36v7.59h2.48zm44.27 0h12.73v6.11h-1.39s.24-2.5-.79-2.56-2 .55-1.84 3.1-2.83 2.72-3.81 3.37a1.08 1.08 0 0 0-.43 1 2.2 2.2 0 0 0 1.11 1.83 3.68 3.68 0 0 1 2.06 3.58c-.21 2.26-2.81 2.48-3.91 2.47a.48.48 0 0 0-.49.48h0a.5.5 0 0 0 .25.42 2.8 2.8 0 0 1 1.59 2.51 1.88 1.88 0 0 1-1.57 1.77 1.44 1.44 0 0 1 1.42 1.56c0 1.88-2.5 1.16-2.46 3.36v7.59h-2.49z"/></g><path d="M38.56 56.32l-13.1-3v36.6l13.1-3v-30.6zm14.15 0l13.1-3v36.6l-13.1-3v-30.6z" fill="#036"/></svg>